<?xml version="1.0" standalone="no"?>
<!DOCTYPE svg PUBLIC "-//W3C//DTD SVG 20010904//EN"
 "http://www.w3.org/TR/2001/REC-SVG-20010904/DTD/svg10.dtd">
<svg version="1.0" xmlns="http://www.w3.org/2000/svg"
 width="400.000000pt" height="400.000000pt" viewBox="0 0 400.000000 400.000000"
 preserveAspectRatio="xMidYMid meet">
<metadata>
Created by potrace 1.11, written by Peter Selinger 2001-2013
</metadata>
<g transform="translate(0.000000,400.000000) scale(0.100000,-0.100000)"
fill="#c0da2c" stroke="none">
<path d="M1710 3836 c-5 -5 -58 -16 -90 -20 -8 0 -50 -18 -92 -38 -43 -21 -86
-38 -96 -38 -10 0 -27 -8 -38 -17 -11 -10 -44 -35 -74 -55 -85 -58 -270 -246
-270 -275 0 -7 -19 -48 -43 -90 -53 -97 -61 -116 -87 -228 -16 -64 -22 -121
-22 -200 1 -60 -5 -140 -12 -177 -7 -37 -10 -65 -6 -63 4 2 12 -35 18 -83 7
-48 18 -91 25 -97 7 -5 19 -25 25 -43 10 -30 9 -34 -14 -44 -48 -22 -45 -112
8 -233 19 -44 45 -110 58 -147 22 -67 60 -116 79 -104 11 7 3 37 -13 48 -24
16 8 21 35 5 17 -9 39 -17 50 -17 23 0 34 -23 24 -47 -5 -12 -9 -14 -12 -5 -8
20 -35 15 -29 -6 4 -12 -2 -26 -14 -37 -18 -17 -23 -17 -31 -5 -8 11 -8 8 -3
-10 13 -48 49 -58 123 -34 15 4 22 3 18 -2 -11 -18 78 -304 95 -304 4 0 8 -7
8 -15 0 -23 63 -141 112 -212 24 -35 74 -95 112 -134 58 -61 65 -73 54 -87
-11 -13 -11 -15 4 -9 12 4 15 2 12 -7 -6 -17 21 -86 34 -86 5 0 7 -11 5 -24
-3 -13 0 -27 6 -30 7 -5 7 -13 -2 -28 -8 -15 -9 -22 -1 -25 8 -2 9 -18 3 -46
-4 -23 -5 -45 -2 -50 3 -4 -7 -20 -22 -35 -15 -15 -31 -38 -36 -50 -5 -13 -18
-26 -29 -29 -11 -3 -20 -9 -20 -13 0 -4 -9 -17 -20 -30 -13 -15 -18 -31 -14
-44 4 -15 3 -17 -4 -7 -6 8 -12 9 -16 3 -3 -6 -2 -13 3 -16 4 -3 9 -17 9 -32
0 -16 -3 -21 -8 -14 -4 7 -15 10 -24 7 -9 -4 -24 4 -38 22 -13 15 -32 30 -42
34 -10 4 -16 10 -13 13 2 3 -6 16 -20 30 -14 14 -22 31 -19 39 3 8 2 15 -2 15
-12 0 -32 63 -32 101 0 19 -6 41 -12 47 -9 9 -10 15 -2 20 6 4 14 18 18 32 14
50 28 80 36 75 12 -7 20 31 26 114 l6 74 -59 -50 c-69 -60 -92 -73 -131 -73
-36 0 -91 -18 -113 -36 -9 -8 -38 -21 -66 -29 -27 -8 -78 -33 -114 -56 -48
-31 -294 -200 -328 -226 -7 -5 58 -70 140 -139 156 -130 357 -249 556 -328
258 -102 606 -154 848 -126 55 6 112 11 128 11 33 0 35 7 5 19 -19 7 -16 8 17
7 22 -1 42 -5 45 -9 3 -4 19 -3 35 1 17 5 22 10 13 10 -10 1 -17 4 -17 8 3 20
-3 23 -23 12 -17 -8 -15 -4 6 14 29 23 29 24 8 29 -31 8 -27 25 6 31 15 3 43
10 63 15 39 10 99 5 99 -9 0 -5 -11 -14 -26 -19 -25 -10 -25 -10 -7 -35 22
-30 45 -27 178 17 180 60 387 171 553 295 88 66 282 250 282 267 0 26 -180
111 -282 132 -38 8 -91 25 -117 38 -25 13 -77 31 -116 42 -38 10 -88 31 -109
46 -21 15 -44 28 -51 28 -7 0 -33 16 -57 35 -25 19 -64 40 -87 47 l-41 13 1
75 c1 141 15 232 46 305 47 109 83 295 83 421 l0 42 38 -5 c27 -4 44 0 60 14
33 26 91 166 102 243 36 254 35 320 -6 369 -22 27 -23 33 -17 130 3 55 9 101
12 101 13 0 5 139 -10 156 -9 12 -10 15 -1 10 12 -7 11 16 -4 63 -3 11 -1 11
9 3 11 -9 13 -8 12 6 -3 28 -17 52 -26 46 -5 -3 -6 2 -3 11 5 12 10 13 20 4
20 -16 28 10 14 45 -5 15 -8 32 -4 37 3 5 -2 9 -10 9 -8 0 -18 5 -22 11 -4 8
1 9 16 4 15 -5 20 -3 16 3 -3 6 4 12 16 15 l23 4 -25 11 c-14 6 -19 11 -12 11
6 1 12 5 12 10 0 6 -15 8 -32 7 -18 -2 -24 -1 -13 1 11 3 25 9 30 15 7 8 5 9
-7 5 -10 -4 -18 -2 -18 2 0 5 5 11 12 13 7 3 3 12 -11 25 -22 21 -22 22 -4 40
21 23 26 40 24 77 -1 20 -1 20 -16 0 -8 -10 -15 -17 -15 -14 -7 32 -6 40 3 40
9 0 9 2 1 8 -6 4 -14 14 -17 22 -3 8 -6 0 -6 -17 -1 -25 -6 -33 -18 -33 -11 0
-14 3 -8 8 6 4 10 14 10 22 -1 8 3 23 8 34 6 12 5 21 -3 26 -6 4 -11 13 -10
21 5 35 0 39 -22 20 -24 -23 -31 -20 -81 34 -17 18 -39 30 -56 31 -15 0 -59
20 -97 43 -39 22 -76 41 -84 41 -7 0 -27 11 -44 24 -39 29 -91 56 -108 56 -7
-1 -2 -8 12 -16 27 -17 17 -14 -60 16 -25 10 -71 21 -102 24 -32 4 -58 11 -58
16 0 5 -12 7 -26 4 -17 -3 -23 -1 -19 7 5 8 2 8 -12 1 -13 -7 -45 -6 -108 5
-96 15 -296 29 -305 19z m-472 -1110 c16 -31 18 -37 21 -57 0 -5 6 -7 11 -4 6
3 10 -2 11 -12 0 -16 1 -16 8 2 8 19 8 19 20 0 11 -19 11 -18 5 4 -4 16 -3 21
5 17 6 -4 11 -16 11 -28 0 -16 3 -18 14 -9 11 9 15 9 19 -1 4 -8 6 -7 6 5 1 9
6 17 12 17 6 0 9 -8 7 -18 -3 -10 1 -23 9 -30 7 -7 13 -11 13 -8 0 2 3 13 6
23 5 15 4 15 -5 3 -9 -13 -11 -13 -11 3 0 11 8 17 21 17 11 0 17 -4 14 -10 -9
-14 7 -12 31 4 22 16 79 27 99 20 15 -6 12 -49 -5 -69 -14 -17 -3 -20 20 -5 9
6 20 5 29 -3 12 -9 13 -9 7 0 -5 9 -2 11 8 7 19 -7 21 -20 4 -30 -8 -5 -2 -12
17 -21 25 -12 26 -13 6 -9 -15 3 -29 -1 -35 -9 -9 -11 -20 -12 -52 -5 -38 9
-68 8 -134 -3 -37 -6 -71 -30 -65 -46 3 -8 0 -11 -9 -8 -8 3 -17 -1 -20 -10
-4 -9 -13 -13 -22 -9 -8 3 -12 2 -9 -4 3 -6 -5 -14 -19 -20 -16 -6 -26 -17
-26 -29 0 -11 -4 -22 -9 -25 -4 -3 -7 6 -5 19 1 14 -2 25 -7 25 -5 0 -9 -7 -9
-15 0 -8 -5 -15 -10 -15 -15 0 -7 -23 13 -38 12 -9 15 -18 8 -25 -11 -14 9
-47 28 -47 6 0 11 -5 11 -11 0 -8 6 -7 18 2 16 13 16 13 2 -6 -8 -11 -19 -23
-24 -26 -4 -4 -5 -16 -1 -28 8 -25 50 -38 70 -21 8 6 19 9 25 5 5 -3 10 -1 10
5 0 7 11 9 28 7 42 -7 72 -19 72 -28 0 -5 8 -6 18 -2 13 4 13 2 -3 -9 -11 -9
-30 -18 -42 -22 -40 -13 -39 -66 3 -85 13 -6 24 -15 24 -21 0 -5 18 -10 40
-10 22 0 40 -4 40 -10 0 -5 5 -10 11 -10 5 0 7 5 4 10 -4 6 8 10 30 10 22 0
34 4 30 10 -3 6 2 10 12 10 10 0 33 12 50 28 66 58 108 93 120 101 7 4 18 33
24 66 14 76 32 104 64 97 14 -2 25 -11 26 -21 5 -165 13 -248 22 -259 9 -11 6
-13 -13 -10 -29 4 -79 -40 -59 -52 8 -6 8 -9 0 -14 -18 -12 -12 -28 8 -21 13
4 20 0 24 -15 3 -11 1 -23 -4 -26 -16 -9 -10 -37 13 -61 l23 -24 -54 2 c-41 2
-55 -1 -63 -14 -13 -25 -68 -51 -80 -39 -16 16 0 77 27 102 29 27 33 45 8 35
-17 -7 -36 -11 -78 -17 -11 -2 -32 -15 -48 -30 -15 -16 -32 -28 -37 -28 -6 0
-10 -7 -10 -16 0 -8 -4 -12 -10 -9 -6 3 -7 -1 -4 -9 4 -11 0 -16 -11 -16 -11
0 -15 -5 -11 -15 4 -11 -1 -15 -17 -15 -12 0 -30 -9 -40 -20 -9 -11 -29 -20
-44 -20 -16 0 -37 -7 -47 -15 -27 -20 -50 -19 -71 5 -21 24 -43 26 -51 5 -8
-20 -34 -19 -34 1 0 8 5 12 10 9 6 -3 10 -1 10 6 0 6 -10 10 -23 7 -17 -3 -23
0 -23 13 0 10 4 15 8 13 4 -3 8 -1 8 5 0 5 -4 12 -9 16 -6 3 -17 40 -26 83
-19 88 -36 133 -47 126 -4 -3 -8 4 -8 15 0 23 -10 27 -27 10 -17 -17 -33 -1
-33 31 0 38 31 99 50 100 12 0 12 2 2 9 -11 7 -10 9 3 15 9 3 14 10 10 15 -3
6 -11 8 -18 6 -8 -4 -13 11 -14 50 -1 30 -7 63 -12 74 -14 26 -14 145 0 190 6
20 20 53 31 74 10 21 20 55 21 77 0 21 5 36 9 34 4 -3 5 2 2 10 -3 9 -9 14
-13 11 -4 -2 -8 9 -8 25 0 16 4 27 9 24 4 -3 8 0 8 7 0 18 28 -9 48 -45z m440
-169 c10 -3 7 -5 -9 -6 -23 -1 -25 2 -20 32 5 31 6 31 9 5 2 -15 11 -29 20
-31z m-718 -238 c7 -11 9 -23 6 -27 -3 -3 -6 0 -6 6 0 6 -7 18 -16 26 -8 9
-11 16 -5 16 6 0 15 -9 21 -21z m78 -105 c38 -41 37 -52 -6 -73 -17 -9 -33
-25 -35 -36 -3 -11 -4 17 -4 63 0 45 3 82 6 82 4 0 21 -16 39 -36z m132 -249
c0 -5 -5 -3 -10 5 -5 8 -10 20 -10 25 0 6 5 3 10 -5 5 -8 10 -19 10 -25z m-20
-150 c0 -2 -9 -9 -20 -15 -16 -9 -18 -8 -14 5 5 13 34 22 34 10z m665 -140
c29 -2 75 -18 75 -25 0 -21 -24 -60 -38 -60 -9 0 -13 -7 -9 -20 4 -17 -3 -22
-46 -35 -91 -27 -114 -19 -122 40 -4 40 4 67 21 67 5 -1 8 6 6 14 -2 8 5 14
16 14 11 0 25 7 32 15 10 12 16 12 34 3 11 -7 26 -12 31 -13z m-495 -75 c0 -5
-2 -10 -4 -10 -3 0 -8 5 -11 10 -3 6 -1 10 4 10 6 0 11 -4 11 -10z m-3 -72
c-3 -8 -6 -5 -6 6 -1 11 2 17 5 13 3 -3 4 -12 1 -19z m825 -60 c-9 -9 -12 -7
-12 12 0 19 3 21 12 12 9 -9 9 -15 0 -24z m-404 -99 c12 -18 11 -20 -5 -17
-10 2 -19 11 -21 21 -5 23 10 21 26 -4z m122 -10 c0 -5 -4 -9 -10 -9 -5 0 -10
7 -10 16 0 8 5 12 10 9 6 -3 10 -10 10 -16z m-60 -51 c0 -15 -15 -8 -28 12
-12 19 -11 20 8 8 11 -7 20 -16 20 -20z m-66 -130 c13 -13 38 -35 55 -50 16
-16 36 -28 44 -28 8 0 20 -7 27 -16 7 -8 23 -14 34 -13 46 3 66 -2 66 -16 0
-9 -6 -18 -14 -21 -8 -3 -16 -14 -19 -25 -3 -11 -14 -19 -26 -19 -12 0 -21 -4
-21 -10 0 -5 -10 -10 -22 -10 -17 0 -19 -3 -10 -9 11 -7 11 -9 0 -14 -8 -3
-25 4 -39 14 -13 10 -28 19 -34 19 -13 0 -60 60 -69 88 -4 12 -12 22 -17 22
-14 0 -11 79 4 95 15 18 12 19 41 -7z m36 -282 c0 -3 -4 -8 -10 -11 -5 -3 -10
-1 -10 4 0 6 5 11 10 11 6 0 10 -2 10 -4z m-70 -16 c0 -5 -4 -10 -10 -10 -5 0
-10 5 -10 10 0 6 5 10 10 10 6 0 10 -4 10 -10z m138 0 c7 0 11 -3 9 -7 -3 -5
6 -9 19 -10 76 -8 78 -9 34 -25 -29 -9 -29 -11 -13 -24 17 -12 16 -13 -9 -14
-19 0 -28 -5 -29 -17 -1 -17 -2 -17 -6 0 -3 12 -15 17 -44 17 -21 0 -39 5 -39
11 0 6 9 8 21 4 20 -7 21 -6 6 15 -21 30 -11 63 17 56 11 -3 27 -6 34 -6z
m-118 -40 c0 -5 -10 -10 -22 -10 -19 0 -20 2 -8 10 19 13 30 13 30 0z m129
-509 c20 -16 45 -31 56 -33 11 -2 19 -10 18 -16 -2 -7 3 -12 11 -12 18 0 78
-59 74 -72 -2 -6 -10 -4 -20 6 -19 19 -39 21 -56 4 -9 -9 -16 -8 -29 4 -25 22
-101 29 -88 8 4 -6 11 -7 17 -4 7 4 8 2 4 -4 -5 -9 -12 -8 -26 0 -13 8 -15 15
-8 19 14 9 -56 80 -74 75 -7 -1 -10 -1 -6 1 5 3 4 13 -2 22 -13 25 -4 31 48
31 34 0 53 -7 81 -29z m268 -105 c-2 -6 -11 -12 -20 -14 -17 -4 -41 33 -32 48
8 13 57 -19 52 -34z m485 -1 c-2 -14 -8 -25 -12 -25 -4 0 -5 11 -2 25 2 14 8
25 12 25 4 0 5 -11 2 -25z m-561 -8 c-10 -9 -11 -8 -5 6 3 10 9 15 12 12 3 -3
0 -11 -7 -18z m414 -6 c3 -5 22 -9 43 -8 51 3 51 -24 0 -30 -29 -3 -38 0 -38
12 0 8 -7 15 -15 15 -8 0 -15 5 -15 10 0 13 17 13 25 1z m-80 -21 c3 -5 1 -10
-4 -10 -6 0 -11 5 -11 10 0 6 2 10 4 10 3 0 8 -4 11 -10z m-405 -10 c0 -5 8
-10 17 -10 13 0 14 -3 5 -12 -8 -8 -15 -8 -27 2 -17 14 -20 30 -5 30 6 0 10
-4 10 -10z m125 -10 c3 -5 -1 -10 -10 -10 -9 0 -13 5 -10 10 3 6 8 10 10 10 2
0 7 -4 10 -10z m-188 -45 c0 -8 -4 -12 -9 -9 -5 3 -6 10 -3 15 9 13 12 11 12
-6z m98 5 c3 -5 1 -10 -4 -10 -6 0 -11 5 -11 10 0 6 2 10 4 10 3 0 8 -4 11
-10z m-20 -30 c3 -5 1 -10 -4 -10 -6 0 -11 5 -11 10 0 6 2 10 4 10 3 0 8 -4
11 -10z m182 -26 c-3 -3 -12 -4 -19 -1 -8 3 -5 6 6 6 11 1 17 -2 13 -5z m-64
-11 c-7 -2 -19 -2 -25 0 -7 3 -2 5 12 5 14 0 19 -2 13 -5z"/>
<path d="M1150 2129 c0 -5 5 -7 10 -4 6 3 10 8 10 11 0 2 -4 4 -10 4 -5 0 -10
-5 -10 -11z"/>
<path d="M1650 2013 c0 -10 4 -14 8 -8 4 6 11 13 16 18 5 4 2 7 -7 7 -10 0
-17 -8 -17 -17z"/>
<path d="M2941 3434 c0 -11 3 -14 6 -6 3 7 2 16 -1 19 -3 4 -6 -2 -5 -13z"/>
</g>
</svg>
