<?xml version="1.0" encoding="UTF-8" standalone="no"?>
<!DOCTYPE svg PUBLIC "-//W3C//DTD SVG 1.1//EN" "http://www.w3.org/Graphics/SVG/1.1/DTD/svg11.dtd">
<svg width="100%" height="100%" viewBox="0 0 467 86" version="1.1" xmlns="http://www.w3.org/2000/svg" xmlns:xlink="http://www.w3.org/1999/xlink" xml:space="preserve" xmlns:serif="http://www.serif.com/" style="fill-rule:evenodd;clip-rule:evenodd;stroke-linejoin:round;stroke-miterlimit:2;">
    <g transform="matrix(1.61988,0,0,1.61988,-15.9132,-47.8556)">
        <g transform="matrix(24,0,0,24,13.9424,62.8919)">
            <path d="M0.185,-0.032C0.185,0.017 0.179,0.056 0.167,0.085C0.155,0.114 0.137,0.138 0.115,0.157C0.092,0.175 0.059,0.193 0.018,0.212L-0.009,0.145C0.017,0.133 0.037,0.121 0.051,0.11C0.065,0.098 0.076,0.082 0.083,0.061C0.09,0.04 0.093,0.011 0.093,-0.026L0.093,-0.527L0.185,-0.527L0.185,-0.032ZM0.139,-0.78C0.158,-0.78 0.174,-0.774 0.186,-0.762C0.198,-0.75 0.204,-0.735 0.204,-0.717C0.204,-0.699 0.198,-0.684 0.186,-0.673C0.174,-0.661 0.158,-0.655 0.139,-0.655C0.12,-0.655 0.105,-0.661 0.093,-0.673C0.081,-0.684 0.075,-0.699 0.075,-0.717C0.075,-0.735 0.081,-0.75 0.093,-0.762C0.105,-0.774 0.12,-0.78 0.139,-0.78Z" style="fill:rgb(176,176,187);fill-opacity:0.9;fill-rule:nonzero;"/>
        </g>
        <g transform="matrix(24,0,0,24,20.6624,62.8919)">
            <path d="M0.187,-0.527L0.187,-0L0.095,-0L0.095,-0.527L0.187,-0.527ZM0.14,-0.78C0.159,-0.78 0.175,-0.774 0.187,-0.762C0.199,-0.75 0.205,-0.735 0.205,-0.717C0.205,-0.699 0.199,-0.684 0.187,-0.673C0.175,-0.661 0.159,-0.655 0.14,-0.655C0.121,-0.655 0.106,-0.661 0.094,-0.673C0.082,-0.684 0.076,-0.699 0.076,-0.717C0.076,-0.735 0.082,-0.75 0.094,-0.762C0.106,-0.774 0.121,-0.78 0.14,-0.78Z" style="fill:rgb(176,176,187);fill-opacity:0.9;fill-rule:nonzero;"/>
        </g>
        <g transform="matrix(24,0,0,24,27.4304,62.8919)">
            <path d="M0.624,-0.539C0.667,-0.539 0.702,-0.525 0.728,-0.496C0.754,-0.466 0.767,-0.427 0.767,-0.378L0.767,-0L0.675,-0L0.675,-0.365C0.675,-0.433 0.65,-0.467 0.601,-0.467C0.575,-0.467 0.553,-0.46 0.535,-0.445C0.517,-0.43 0.498,-0.406 0.477,-0.374L0.477,-0L0.385,-0L0.385,-0.365C0.385,-0.433 0.36,-0.467 0.311,-0.467C0.284,-0.467 0.262,-0.459 0.244,-0.444C0.226,-0.429 0.207,-0.405 0.187,-0.374L0.187,-0L0.095,-0L0.095,-0.527L0.174,-0.527L0.182,-0.45C0.221,-0.509 0.272,-0.539 0.334,-0.539C0.367,-0.539 0.395,-0.531 0.418,-0.514C0.44,-0.497 0.457,-0.474 0.467,-0.444C0.488,-0.475 0.51,-0.498 0.536,-0.515C0.561,-0.531 0.59,-0.539 0.624,-0.539Z" style="fill:rgb(176,176,187);fill-opacity:0.9;fill-rule:nonzero;"/>
        </g>
        <g transform="matrix(24,0,0,24,47.9984,62.8919)">
            <path d="M0.119,-0.127C0.139,-0.127 0.156,-0.12 0.169,-0.107C0.182,-0.094 0.189,-0.077 0.189,-0.058C0.189,-0.039 0.182,-0.022 0.169,-0.009C0.156,0.005 0.139,0.012 0.119,0.012C0.1,0.012 0.083,0.005 0.07,-0.009C0.057,-0.022 0.05,-0.039 0.05,-0.058C0.05,-0.077 0.057,-0.094 0.07,-0.107C0.083,-0.12 0.1,-0.127 0.119,-0.127Z" style="fill:rgb(176,176,187);fill-opacity:0.9;fill-rule:nonzero;"/>
        </g>
        <g transform="matrix(24,0,0,24,53.5184,62.8919)">
            <path d="M0.493,-0.279C0.493,-0.264 0.492,-0.248 0.491,-0.232L0.155,-0.232C0.159,-0.174 0.174,-0.131 0.199,-0.104C0.224,-0.077 0.257,-0.063 0.297,-0.063C0.322,-0.063 0.346,-0.067 0.367,-0.074C0.388,-0.081 0.411,-0.093 0.434,-0.109L0.474,-0.054C0.418,-0.01 0.357,0.012 0.29,0.012C0.217,0.012 0.16,-0.012 0.119,-0.06C0.078,-0.108 0.057,-0.174 0.057,-0.258C0.057,-0.313 0.066,-0.361 0.084,-0.404C0.101,-0.446 0.127,-0.479 0.16,-0.503C0.193,-0.527 0.231,-0.539 0.276,-0.539C0.346,-0.539 0.4,-0.516 0.437,-0.47C0.474,-0.424 0.493,-0.36 0.493,-0.279ZM0.402,-0.306C0.402,-0.358 0.392,-0.398 0.371,-0.425C0.35,-0.452 0.319,-0.466 0.278,-0.466C0.203,-0.466 0.162,-0.411 0.155,-0.3L0.402,-0.3L0.402,-0.306Z" style="fill:rgb(176,176,187);fill-opacity:0.9;fill-rule:nonzero;"/>
        </g>
        <g transform="matrix(24,0,0,24,66.5984,62.8919)">
            <path d="M0.287,-0.539C0.318,-0.539 0.347,-0.535 0.373,-0.526C0.399,-0.517 0.424,-0.502 0.448,-0.482L0.404,-0.424C0.385,-0.437 0.367,-0.447 0.35,-0.454C0.332,-0.46 0.312,-0.463 0.291,-0.463C0.248,-0.463 0.215,-0.446 0.192,-0.412C0.168,-0.378 0.156,-0.328 0.156,-0.261C0.156,-0.194 0.168,-0.145 0.191,-0.114C0.214,-0.082 0.248,-0.066 0.291,-0.066C0.312,-0.066 0.331,-0.069 0.348,-0.076C0.365,-0.082 0.385,-0.092 0.406,-0.106L0.448,-0.046C0.4,-0.007 0.346,0.012 0.287,0.012C0.216,0.012 0.16,-0.012 0.119,-0.06C0.078,-0.108 0.057,-0.174 0.057,-0.259C0.057,-0.315 0.066,-0.364 0.085,-0.406C0.104,-0.448 0.13,-0.481 0.165,-0.504C0.199,-0.527 0.24,-0.539 0.287,-0.539Z" style="fill:rgb(176,176,187);fill-opacity:0.9;fill-rule:nonzero;"/>
        </g>
        <g transform="matrix(24,0,0,24,78.0704,62.8919)">
            <path d="M0.187,-0.75L0.187,-0L0.095,-0L0.095,-0.739L0.187,-0.75ZM0.49,-0.527L0.296,-0.294L0.512,-0L0.402,-0L0.193,-0.288L0.387,-0.527L0.49,-0.527Z" style="fill:rgb(176,176,187);fill-opacity:0.9;fill-rule:nonzero;"/>
        </g>
        <g transform="matrix(24,0,0,24,90.1424,62.8919)">
            <path d="M0.493,-0.279C0.493,-0.264 0.492,-0.248 0.491,-0.232L0.155,-0.232C0.159,-0.174 0.174,-0.131 0.199,-0.104C0.224,-0.077 0.257,-0.063 0.297,-0.063C0.322,-0.063 0.346,-0.067 0.367,-0.074C0.388,-0.081 0.411,-0.093 0.434,-0.109L0.474,-0.054C0.418,-0.01 0.357,0.012 0.29,0.012C0.217,0.012 0.16,-0.012 0.119,-0.06C0.078,-0.108 0.057,-0.174 0.057,-0.258C0.057,-0.313 0.066,-0.361 0.084,-0.404C0.101,-0.446 0.127,-0.479 0.16,-0.503C0.193,-0.527 0.231,-0.539 0.276,-0.539C0.346,-0.539 0.4,-0.516 0.437,-0.47C0.474,-0.424 0.493,-0.36 0.493,-0.279ZM0.402,-0.306C0.402,-0.358 0.392,-0.398 0.371,-0.425C0.35,-0.452 0.319,-0.466 0.278,-0.466C0.203,-0.466 0.162,-0.411 0.155,-0.3L0.402,-0.3L0.402,-0.306Z" style="fill:rgb(176,176,187);fill-opacity:0.9;fill-rule:nonzero;"/>
        </g>
        <g transform="matrix(24,0,0,24,103.222,62.8919)">
            <path d="M0.324,-0.539C0.343,-0.539 0.36,-0.537 0.376,-0.533L0.359,-0.443C0.343,-0.447 0.328,-0.449 0.313,-0.449C0.28,-0.449 0.254,-0.437 0.234,-0.413C0.214,-0.389 0.198,-0.352 0.187,-0.301L0.187,-0L0.095,-0L0.095,-0.527L0.174,-0.527L0.183,-0.42C0.197,-0.459 0.216,-0.489 0.24,-0.509C0.264,-0.529 0.292,-0.539 0.324,-0.539Z" style="fill:rgb(176,176,187);fill-opacity:0.9;fill-rule:nonzero;"/>
        </g>
        <g transform="matrix(24,0,0,24,112.486,62.8919)">
            <path d="M0.2,0.012C0.166,0.012 0.139,0.002 0.12,-0.019C0.1,-0.039 0.09,-0.067 0.09,-0.104L0.09,-0.739L0.182,-0.75L0.182,-0.106C0.182,-0.091 0.185,-0.081 0.19,-0.074C0.195,-0.067 0.203,-0.064 0.215,-0.064C0.228,-0.064 0.239,-0.066 0.249,-0.07L0.273,-0.006C0.251,0.006 0.227,0.012 0.2,0.012Z" style="fill:rgb(176,176,187);fill-opacity:0.9;fill-rule:nonzero;"/>
        </g>
        <g transform="matrix(24,0,0,24,119.398,62.8919)">
            <path d="M0.493,-0.279C0.493,-0.264 0.492,-0.248 0.491,-0.232L0.155,-0.232C0.159,-0.174 0.174,-0.131 0.199,-0.104C0.224,-0.077 0.257,-0.063 0.297,-0.063C0.322,-0.063 0.346,-0.067 0.367,-0.074C0.388,-0.081 0.411,-0.093 0.434,-0.109L0.474,-0.054C0.418,-0.01 0.357,0.012 0.29,0.012C0.217,0.012 0.16,-0.012 0.119,-0.06C0.078,-0.108 0.057,-0.174 0.057,-0.258C0.057,-0.313 0.066,-0.361 0.084,-0.404C0.101,-0.446 0.127,-0.479 0.16,-0.503C0.193,-0.527 0.231,-0.539 0.276,-0.539C0.346,-0.539 0.4,-0.516 0.437,-0.47C0.474,-0.424 0.493,-0.36 0.493,-0.279ZM0.402,-0.306C0.402,-0.358 0.392,-0.398 0.371,-0.425C0.35,-0.452 0.319,-0.466 0.278,-0.466C0.203,-0.466 0.162,-0.411 0.155,-0.3L0.402,-0.3L0.402,-0.306Z" style="fill:rgb(176,176,187);fill-opacity:0.9;fill-rule:nonzero;"/>
        </g>
        <g transform="matrix(24,0,0,24,132.478,62.8919)">
            <path d="M0.187,-0.527L0.187,-0L0.095,-0L0.095,-0.527L0.187,-0.527ZM0.14,-0.78C0.159,-0.78 0.175,-0.774 0.187,-0.762C0.199,-0.75 0.205,-0.735 0.205,-0.717C0.205,-0.699 0.199,-0.684 0.187,-0.673C0.175,-0.661 0.159,-0.655 0.14,-0.655C0.121,-0.655 0.106,-0.661 0.094,-0.673C0.082,-0.684 0.076,-0.699 0.076,-0.717C0.076,-0.735 0.082,-0.75 0.094,-0.762C0.106,-0.774 0.121,-0.78 0.14,-0.78Z" style="fill:rgb(176,176,187);fill-opacity:0.9;fill-rule:nonzero;"/>
        </g>
        <g transform="matrix(24,0,0,24,139.246,62.8919)">
            <path d="M0.343,-0.539C0.391,-0.539 0.429,-0.525 0.456,-0.496C0.483,-0.467 0.496,-0.428 0.496,-0.378L0.496,-0L0.404,-0L0.404,-0.365C0.404,-0.402 0.397,-0.429 0.383,-0.444C0.369,-0.459 0.348,-0.467 0.321,-0.467C0.293,-0.467 0.268,-0.459 0.247,-0.443C0.226,-0.427 0.206,-0.404 0.187,-0.374L0.187,-0L0.095,-0L0.095,-0.527L0.174,-0.527L0.182,-0.449C0.201,-0.477 0.224,-0.499 0.252,-0.515C0.279,-0.531 0.31,-0.539 0.343,-0.539Z" style="fill:rgb(176,176,187);fill-opacity:0.9;fill-rule:nonzero;"/>
        </g>
        <g transform="matrix(24,0,0,24,153.31,62.8919)">
            <path d="M0.526,-0.701C0.615,-0.701 0.692,-0.683 0.756,-0.648C0.82,-0.612 0.868,-0.564 0.901,-0.504C0.934,-0.444 0.95,-0.378 0.95,-0.307C0.95,-0.22 0.933,-0.149 0.9,-0.093C0.867,-0.037 0.818,-0.009 0.753,-0.009C0.716,-0.009 0.687,-0.019 0.666,-0.04C0.645,-0.061 0.631,-0.085 0.625,-0.112C0.612,-0.083 0.594,-0.059 0.571,-0.04C0.547,-0.021 0.517,-0.011 0.481,-0.011C0.428,-0.011 0.386,-0.031 0.355,-0.071C0.323,-0.111 0.308,-0.164 0.308,-0.231C0.308,-0.315 0.328,-0.38 0.368,-0.425C0.408,-0.47 0.461,-0.492 0.526,-0.492C0.554,-0.492 0.58,-0.489 0.605,-0.483C0.63,-0.477 0.656,-0.467 0.683,-0.452L0.683,-0.193C0.683,-0.152 0.689,-0.123 0.7,-0.106C0.711,-0.089 0.728,-0.08 0.751,-0.08C0.822,-0.08 0.857,-0.155 0.857,-0.305C0.857,-0.37 0.844,-0.426 0.819,-0.474C0.794,-0.522 0.756,-0.559 0.707,-0.586C0.658,-0.612 0.597,-0.625 0.526,-0.625C0.453,-0.625 0.389,-0.608 0.334,-0.576C0.279,-0.543 0.236,-0.497 0.207,-0.439C0.178,-0.38 0.163,-0.314 0.163,-0.24C0.163,-0.166 0.177,-0.1 0.206,-0.044C0.234,0.014 0.275,0.058 0.33,0.09C0.385,0.121 0.45,0.137 0.526,0.137C0.589,0.137 0.653,0.126 0.718,0.103L0.743,0.174C0.706,0.187 0.671,0.197 0.638,0.204C0.604,0.21 0.567,0.213 0.525,0.213C0.436,0.213 0.357,0.195 0.288,0.158C0.219,0.121 0.166,0.068 0.128,-0.001C0.089,-0.07 0.07,-0.149 0.07,-0.24C0.07,-0.327 0.089,-0.405 0.128,-0.475C0.166,-0.545 0.22,-0.6 0.289,-0.641C0.358,-0.681 0.437,-0.701 0.526,-0.701ZM0.492,-0.078C0.542,-0.078 0.578,-0.107 0.6,-0.164L0.6,-0.411C0.578,-0.421 0.554,-0.426 0.529,-0.426C0.442,-0.426 0.398,-0.361 0.398,-0.231C0.398,-0.181 0.406,-0.143 0.422,-0.117C0.438,-0.091 0.461,-0.078 0.492,-0.078Z" style="fill:rgb(176,176,187);fill-opacity:0.9;fill-rule:nonzero;"/>
        </g>
        <g transform="matrix(24,0,0,24,177.79,62.8919)">
            <path d="M0.187,-0.527L0.187,-0L0.095,-0L0.095,-0.527L0.187,-0.527ZM0.14,-0.78C0.159,-0.78 0.175,-0.774 0.187,-0.762C0.199,-0.75 0.205,-0.735 0.205,-0.717C0.205,-0.699 0.199,-0.684 0.187,-0.673C0.175,-0.661 0.159,-0.655 0.14,-0.655C0.121,-0.655 0.106,-0.661 0.094,-0.673C0.082,-0.684 0.076,-0.699 0.076,-0.717C0.076,-0.735 0.082,-0.75 0.094,-0.762C0.106,-0.774 0.121,-0.78 0.14,-0.78Z" style="fill:rgb(176,176,187);fill-opacity:0.9;fill-rule:nonzero;"/>
        </g>
        <g transform="matrix(24,0,0,24,184.558,62.8919)">
            <path d="M0.287,-0.539C0.318,-0.539 0.347,-0.535 0.373,-0.526C0.399,-0.517 0.424,-0.502 0.448,-0.482L0.404,-0.424C0.385,-0.437 0.367,-0.447 0.35,-0.454C0.332,-0.46 0.312,-0.463 0.291,-0.463C0.248,-0.463 0.215,-0.446 0.192,-0.412C0.168,-0.378 0.156,-0.328 0.156,-0.261C0.156,-0.194 0.168,-0.145 0.191,-0.114C0.214,-0.082 0.248,-0.066 0.291,-0.066C0.312,-0.066 0.331,-0.069 0.348,-0.076C0.365,-0.082 0.385,-0.092 0.406,-0.106L0.448,-0.046C0.4,-0.007 0.346,0.012 0.287,0.012C0.216,0.012 0.16,-0.012 0.119,-0.06C0.078,-0.108 0.057,-0.174 0.057,-0.259C0.057,-0.315 0.066,-0.364 0.085,-0.406C0.104,-0.448 0.13,-0.481 0.165,-0.504C0.199,-0.527 0.24,-0.539 0.287,-0.539Z" style="fill:rgb(176,176,187);fill-opacity:0.9;fill-rule:nonzero;"/>
        </g>
        <g transform="matrix(24,0,0,24,196.03,62.8919)">
            <path d="M0.2,0.012C0.166,0.012 0.139,0.002 0.12,-0.019C0.1,-0.039 0.09,-0.067 0.09,-0.104L0.09,-0.739L0.182,-0.75L0.182,-0.106C0.182,-0.091 0.185,-0.081 0.19,-0.074C0.195,-0.067 0.203,-0.064 0.215,-0.064C0.228,-0.064 0.239,-0.066 0.249,-0.07L0.273,-0.006C0.251,0.006 0.227,0.012 0.2,0.012Z" style="fill:rgb(176,176,187);fill-opacity:0.9;fill-rule:nonzero;"/>
        </g>
        <g transform="matrix(24,0,0,24,202.942,62.8919)">
            <path d="M0.293,-0.539C0.367,-0.539 0.425,-0.514 0.466,-0.465C0.507,-0.416 0.527,-0.349 0.527,-0.264C0.527,-0.209 0.518,-0.161 0.499,-0.12C0.48,-0.078 0.453,-0.046 0.418,-0.023C0.383,0.001 0.341,0.012 0.292,0.012C0.218,0.012 0.16,-0.013 0.119,-0.062C0.078,-0.111 0.057,-0.178 0.057,-0.263C0.057,-0.318 0.066,-0.366 0.085,-0.408C0.104,-0.449 0.131,-0.482 0.166,-0.505C0.201,-0.528 0.244,-0.539 0.293,-0.539ZM0.293,-0.465C0.202,-0.465 0.156,-0.398 0.156,-0.263C0.156,-0.129 0.201,-0.062 0.292,-0.062C0.383,-0.062 0.428,-0.129 0.428,-0.264C0.428,-0.398 0.383,-0.465 0.293,-0.465Z" style="fill:rgb(176,176,187);fill-opacity:0.9;fill-rule:nonzero;"/>
        </g>
        <g transform="matrix(24,0,0,24,216.958,62.8919)">
            <path d="M0.487,-0L0.408,-0L0.401,-0.082C0.381,-0.049 0.358,-0.025 0.332,-0.011C0.306,0.005 0.274,0.012 0.237,0.012C0.191,0.012 0.155,-0.002 0.129,-0.03C0.103,-0.058 0.09,-0.098 0.09,-0.149L0.09,-0.527L0.182,-0.527L0.182,-0.159C0.182,-0.123 0.188,-0.097 0.201,-0.083C0.214,-0.068 0.234,-0.06 0.263,-0.06C0.314,-0.06 0.358,-0.09 0.395,-0.151L0.395,-0.527L0.487,-0.527L0.487,-0Z" style="fill:rgb(176,176,187);fill-opacity:0.9;fill-rule:nonzero;"/>
        </g>
        <g transform="matrix(24,0,0,24,230.926,62.8919)">
            <path d="M0.503,-0.739L0.503,-0L0.422,-0L0.413,-0.073C0.396,-0.046 0.374,-0.025 0.348,-0.011C0.322,0.005 0.293,0.012 0.261,0.012C0.198,0.012 0.15,-0.013 0.115,-0.062C0.08,-0.111 0.062,-0.178 0.062,-0.261C0.062,-0.315 0.07,-0.363 0.087,-0.405C0.104,-0.447 0.128,-0.48 0.159,-0.504C0.19,-0.527 0.227,-0.539 0.269,-0.539C0.323,-0.539 0.37,-0.517 0.411,-0.474L0.411,-0.75L0.503,-0.739ZM0.281,-0.061C0.309,-0.061 0.333,-0.068 0.353,-0.081C0.373,-0.094 0.392,-0.113 0.411,-0.139L0.411,-0.397C0.394,-0.42 0.375,-0.437 0.356,-0.449C0.336,-0.46 0.314,-0.466 0.289,-0.466C0.248,-0.466 0.217,-0.449 0.195,-0.415C0.172,-0.381 0.161,-0.33 0.161,-0.263C0.161,-0.195 0.171,-0.144 0.192,-0.111C0.213,-0.078 0.242,-0.061 0.281,-0.061Z" style="fill:rgb(176,176,187);fill-opacity:0.9;fill-rule:nonzero;"/>
        </g>
        <g transform="matrix(24,0,0,24,245.278,62.8919)">
            <path d="M0.119,-0.127C0.139,-0.127 0.156,-0.12 0.169,-0.107C0.182,-0.094 0.189,-0.077 0.189,-0.058C0.189,-0.039 0.182,-0.022 0.169,-0.009C0.156,0.005 0.139,0.012 0.119,0.012C0.1,0.012 0.083,0.005 0.07,-0.009C0.057,-0.022 0.05,-0.039 0.05,-0.058C0.05,-0.077 0.057,-0.094 0.07,-0.107C0.083,-0.12 0.1,-0.127 0.119,-0.127Z" style="fill:rgb(176,176,187);fill-opacity:0.9;fill-rule:nonzero;"/>
        </g>
        <g transform="matrix(24,0,0,24,250.798,62.8919)">
            <path d="M0.287,-0.539C0.318,-0.539 0.347,-0.535 0.373,-0.526C0.399,-0.517 0.424,-0.502 0.448,-0.482L0.404,-0.424C0.385,-0.437 0.367,-0.447 0.35,-0.454C0.332,-0.46 0.312,-0.463 0.291,-0.463C0.248,-0.463 0.215,-0.446 0.192,-0.412C0.168,-0.378 0.156,-0.328 0.156,-0.261C0.156,-0.194 0.168,-0.145 0.191,-0.114C0.214,-0.082 0.248,-0.066 0.291,-0.066C0.312,-0.066 0.331,-0.069 0.348,-0.076C0.365,-0.082 0.385,-0.092 0.406,-0.106L0.448,-0.046C0.4,-0.007 0.346,0.012 0.287,0.012C0.216,0.012 0.16,-0.012 0.119,-0.06C0.078,-0.108 0.057,-0.174 0.057,-0.259C0.057,-0.315 0.066,-0.364 0.085,-0.406C0.104,-0.448 0.13,-0.481 0.165,-0.504C0.199,-0.527 0.24,-0.539 0.287,-0.539Z" style="fill:rgb(176,176,187);fill-opacity:0.9;fill-rule:nonzero;"/>
        </g>
        <g transform="matrix(24,0,0,24,261.79,62.8919)">
            <path d="M0.293,-0.539C0.367,-0.539 0.425,-0.514 0.466,-0.465C0.507,-0.416 0.527,-0.349 0.527,-0.264C0.527,-0.209 0.518,-0.161 0.499,-0.12C0.48,-0.078 0.453,-0.046 0.418,-0.023C0.383,0.001 0.341,0.012 0.292,0.012C0.218,0.012 0.16,-0.013 0.119,-0.062C0.078,-0.111 0.057,-0.178 0.057,-0.263C0.057,-0.318 0.066,-0.366 0.085,-0.408C0.104,-0.449 0.131,-0.482 0.166,-0.505C0.201,-0.528 0.244,-0.539 0.293,-0.539ZM0.293,-0.465C0.202,-0.465 0.156,-0.398 0.156,-0.263C0.156,-0.129 0.201,-0.062 0.292,-0.062C0.383,-0.062 0.428,-0.129 0.428,-0.264C0.428,-0.398 0.383,-0.465 0.293,-0.465Z" style="fill:rgb(176,176,187);fill-opacity:0.9;fill-rule:nonzero;"/>
        </g>
        <g transform="matrix(24,0,0,24,275.806,62.8919)">
            <path d="M0.624,-0.539C0.667,-0.539 0.702,-0.525 0.728,-0.496C0.754,-0.466 0.767,-0.427 0.767,-0.378L0.767,-0L0.675,-0L0.675,-0.365C0.675,-0.433 0.65,-0.467 0.601,-0.467C0.575,-0.467 0.553,-0.46 0.535,-0.445C0.517,-0.43 0.498,-0.406 0.477,-0.374L0.477,-0L0.385,-0L0.385,-0.365C0.385,-0.433 0.36,-0.467 0.311,-0.467C0.284,-0.467 0.262,-0.459 0.244,-0.444C0.226,-0.429 0.207,-0.405 0.187,-0.374L0.187,-0L0.095,-0L0.095,-0.527L0.174,-0.527L0.182,-0.45C0.221,-0.509 0.272,-0.539 0.334,-0.539C0.367,-0.539 0.395,-0.531 0.418,-0.514C0.44,-0.497 0.457,-0.474 0.467,-0.444C0.488,-0.475 0.51,-0.498 0.536,-0.515C0.561,-0.531 0.59,-0.539 0.624,-0.539Z" style="fill:rgb(176,176,187);fill-opacity:0.9;fill-rule:nonzero;"/>
        </g>
    </g>
</svg>
