<?xml version="1.0" encoding="UTF-8" standalone="no"?>
<!DOCTYPE svg PUBLIC "-//W3C//DTD SVG 1.1//EN" "http://www.w3.org/Graphics/SVG/1.1/DTD/svg11.dtd">
<svg width="100%" height="100%" viewBox="0 0 467 86" version="1.1" xmlns="http://www.w3.org/2000/svg" xmlns:xlink="http://www.w3.org/1999/xlink" xml:space="preserve" xmlns:serif="http://www.serif.com/" style="fill-rule:evenodd;clip-rule:evenodd;stroke-linejoin:round;stroke-miterlimit:2;">
    <g transform="matrix(1.1385,0,0,1.1385,-32.272,-3.88762)" fill="rgb(176, 176, 187)">
        <path d="M29.636,34.719L37.634,34.719L37.634,50.672C37.634,51.687 37.492,52.586 37.209,53.367C36.936,54.148 36.53,54.803 35.993,55.33C35.466,55.867 34.816,56.272 34.045,56.546C33.283,56.829 32.414,56.97 31.437,56.97C30.88,56.97 30.358,56.951 29.87,56.912C29.391,56.883 28.883,56.819 28.346,56.721L28.537,54.495C28.703,54.524 28.913,54.549 29.167,54.568C29.421,54.597 29.675,54.617 29.928,54.626C30.192,54.646 30.441,54.656 30.676,54.656C30.92,54.665 31.11,54.67 31.247,54.67C31.755,54.67 32.233,54.602 32.682,54.465C33.131,54.338 33.522,54.118 33.854,53.805C34.186,53.493 34.445,53.078 34.631,52.56C34.826,52.053 34.924,51.423 34.924,50.671L34.924,37.077L29.636,37.077L29.636,34.719ZM34.543,30.545C34.543,30.105 34.675,29.734 34.938,29.431C35.202,29.119 35.607,28.963 36.154,28.963C36.701,28.963 37.111,29.119 37.385,29.431C37.658,29.734 37.795,30.105 37.795,30.545C37.795,30.984 37.658,31.355 37.385,31.658C37.111,31.951 36.701,32.097 36.154,32.097C35.607,32.097 35.202,31.951 34.938,31.658C34.675,31.355 34.543,30.984 34.543,30.545ZM46.218,34.719L54.318,34.719L54.318,48.225L59.489,48.225L59.489,50.569L46.218,50.569L46.218,48.225L51.608,48.225L51.608,37.078L46.218,37.078L46.218,34.719ZM51.257,30.559C51.257,30.11 51.389,29.734 51.652,29.431C51.925,29.119 52.336,28.963 52.883,28.963C53.42,28.963 53.825,29.119 54.098,29.431C54.372,29.734 54.509,30.11 54.509,30.559C54.509,30.998 54.372,31.365 54.098,31.658C53.825,31.951 53.42,32.097 52.883,32.097C52.336,32.097 51.925,31.951 51.652,31.658C51.389,31.365 51.257,30.998 51.257,30.559ZM65.026,34.719L65.099,36.214C65.422,35.657 65.842,35.223 66.359,34.91C66.886,34.597 67.521,34.436 68.263,34.426C69.718,34.426 70.69,34.993 71.178,36.126C71.491,35.618 71.901,35.213 72.409,34.91C72.926,34.597 73.551,34.436 74.284,34.426C75.446,34.426 76.34,34.783 76.965,35.496C77.59,36.209 77.902,37.288 77.902,38.733L77.902,50.569L75.324,50.569L75.324,38.704C75.324,37.376 74.714,36.717 73.493,36.726C73.171,36.726 72.893,36.77 72.658,36.858C72.423,36.946 72.228,37.068 72.072,37.224C71.916,37.371 71.794,37.547 71.706,37.752C71.618,37.947 71.559,38.152 71.53,38.367L71.53,50.569L68.952,50.569L68.952,38.689C68.952,38.054 68.81,37.566 68.527,37.224C68.244,36.883 67.794,36.717 67.179,36.726C66.613,36.726 66.174,36.838 65.861,37.063C65.548,37.288 65.319,37.586 65.173,37.957L65.173,50.569L62.595,50.569L62.595,34.719L65.026,34.719ZM86.486,48.811C86.486,48.518 86.53,48.245 86.618,47.991C86.715,47.737 86.852,47.517 87.028,47.332C87.204,47.137 87.424,46.985 87.687,46.878C87.951,46.771 88.259,46.717 88.61,46.717C88.961,46.717 89.269,46.771 89.533,46.878C89.806,46.985 90.031,47.137 90.207,47.332C90.392,47.517 90.529,47.737 90.617,47.991C90.714,48.245 90.763,48.518 90.763,48.811C90.763,49.094 90.714,49.363 90.617,49.617C90.529,49.861 90.392,50.076 90.207,50.261C90.031,50.447 89.806,50.589 89.533,50.686C89.269,50.793 88.961,50.847 88.61,50.847C88.259,50.847 87.951,50.793 87.687,50.686C87.424,50.589 87.204,50.447 87.028,50.261C86.852,50.076 86.715,49.861 86.618,49.617C86.53,49.363 86.486,49.094 86.486,48.811ZM106.76,50.862C105.647,50.862 104.621,50.672 103.683,50.291C102.756,49.91 101.96,49.377 101.296,48.694C100.632,48.011 100.114,47.2 99.743,46.262C99.372,45.325 99.186,44.304 99.186,43.201L99.186,42.586C99.186,41.307 99.391,40.164 99.802,39.158C100.212,38.142 100.754,37.287 101.428,36.594C102.111,35.891 102.883,35.354 103.742,34.983C104.611,34.612 105.5,34.426 106.408,34.426C107.551,34.426 108.547,34.626 109.396,35.027C110.255,35.418 110.968,35.965 111.535,36.668C112.102,37.361 112.522,38.182 112.795,39.129C113.078,40.076 113.22,41.101 113.22,42.205L113.22,43.421L101.896,43.421C101.925,44.144 102.062,44.822 102.306,45.457C102.56,46.092 102.902,46.648 103.332,47.127C103.771,47.596 104.294,47.967 104.899,48.24C105.504,48.513 106.173,48.65 106.906,48.65C107.873,48.65 108.732,48.455 109.484,48.064C110.236,47.673 110.861,47.156 111.359,46.511L113.014,47.8C112.751,48.201 112.419,48.587 112.018,48.958C111.627,49.319 111.173,49.641 110.656,49.924C110.139,50.207 109.553,50.432 108.898,50.598C108.244,50.774 107.531,50.862 106.76,50.862ZM106.408,36.653C105.861,36.653 105.344,36.756 104.855,36.961C104.367,37.156 103.928,37.449 103.537,37.84C103.146,38.221 102.814,38.694 102.541,39.26C102.277,39.817 102.091,40.461 101.984,41.194L110.51,41.194L110.51,40.989C110.481,40.462 110.378,39.939 110.202,39.421C110.036,38.904 109.787,38.44 109.455,38.03C109.123,37.62 108.703,37.288 108.195,37.034C107.697,36.78 107.101,36.653 106.408,36.653ZM124.499,48.665C124.987,48.665 125.461,48.587 125.92,48.43C126.389,48.274 126.804,48.059 127.165,47.786C127.526,47.503 127.814,47.175 128.029,46.804C128.254,46.423 128.371,46.013 128.381,45.574L130.944,45.574C130.934,46.277 130.748,46.95 130.387,47.595C130.036,48.23 129.562,48.791 128.967,49.28C128.371,49.759 127.687,50.144 126.916,50.437C126.145,50.72 125.339,50.862 124.499,50.862C123.298,50.862 122.248,50.647 121.349,50.217C120.451,49.788 119.699,49.212 119.094,48.489C118.498,47.756 118.049,46.916 117.746,45.969C117.443,45.012 117.292,44.007 117.292,42.952L117.292,42.337C117.292,41.292 117.443,40.291 117.746,39.334C118.049,38.377 118.498,37.537 119.094,36.814C119.699,36.081 120.451,35.5 121.349,35.071C122.248,34.641 123.298,34.426 124.499,34.426C125.436,34.426 126.296,34.577 127.077,34.88C127.868,35.173 128.546,35.579 129.113,36.096C129.689,36.604 130.138,37.21 130.461,37.913C130.783,38.616 130.944,39.368 130.944,40.169L128.381,40.169C128.371,39.69 128.263,39.241 128.058,38.821C127.863,38.391 127.594,38.015 127.253,37.693C126.911,37.371 126.501,37.117 126.022,36.931C125.553,36.746 125.046,36.653 124.499,36.653C123.659,36.653 122.951,36.824 122.375,37.166C121.808,37.498 121.349,37.937 120.998,38.484C120.646,39.021 120.392,39.627 120.236,40.3C120.089,40.974 120.016,41.653 120.016,42.336L120.016,42.952C120.016,43.645 120.089,44.334 120.236,45.017C120.392,45.691 120.641,46.301 120.983,46.848C121.335,47.385 121.794,47.825 122.36,48.167C122.936,48.499 123.649,48.665 124.499,48.665ZM140.48,43.172L138.488,45.09L138.488,50.569L135.763,50.569L135.763,28.069L138.488,28.069L138.488,41.839L140.261,39.934L145.461,34.719L148.757,34.719L142.341,41.326L149.738,50.569L146.296,50.569L140.48,43.172ZM160.724,50.862C159.611,50.862 158.585,50.672 157.648,50.291C156.721,49.91 155.925,49.377 155.261,48.694C154.596,48.011 154.079,47.2 153.708,46.262C153.337,45.325 153.151,44.304 153.151,43.201L153.151,42.586C153.151,41.307 153.356,40.164 153.766,39.158C154.177,38.142 154.719,37.287 155.392,36.594C156.076,35.891 156.848,35.354 157.707,34.983C158.576,34.612 159.465,34.426 160.373,34.426C161.516,34.426 162.512,34.626 163.361,35.027C164.22,35.418 164.933,35.965 165.5,36.668C166.066,37.361 166.486,38.182 166.76,39.129C167.043,40.076 167.184,41.101 167.184,42.205L167.184,43.421L155.861,43.421C155.89,44.144 156.027,44.822 156.271,45.457C156.525,46.092 156.867,46.648 157.297,47.127C157.736,47.596 158.259,47.967 158.864,48.24C159.469,48.513 160.138,48.65 160.871,48.65C161.838,48.65 162.697,48.455 163.449,48.064C164.201,47.673 164.826,47.156 165.324,46.511L166.979,47.8C166.716,48.201 166.384,48.587 165.983,48.958C165.592,49.319 165.138,49.641 164.621,49.924C164.103,50.207 163.517,50.432 162.863,50.598C162.209,50.774 161.496,50.862 160.724,50.862ZM160.373,36.653C159.826,36.653 159.309,36.756 158.82,36.961C158.332,37.156 157.893,37.449 157.502,37.84C157.111,38.221 156.779,38.694 156.506,39.26C156.242,39.817 156.056,40.461 155.949,41.194L164.474,41.194L164.474,40.989C164.445,40.462 164.342,39.939 164.167,39.421C164.001,38.904 163.752,38.44 163.42,38.03C163.088,37.62 162.668,37.288 162.16,37.034C161.662,36.78 161.066,36.653 160.373,36.653ZM182.096,34.426C182.35,34.426 182.614,34.436 182.887,34.456C183.161,34.465 183.42,34.49 183.664,34.529C183.918,34.558 184.147,34.597 184.352,34.646C184.567,34.695 184.743,34.748 184.88,34.807L184.513,37.458C183.986,37.341 183.483,37.258 183.005,37.209C182.536,37.15 182.043,37.121 181.525,37.121C180.256,37.121 179.225,37.409 178.434,37.985C177.653,38.562 177.077,39.367 176.706,40.402L176.706,50.568L173.981,50.568L173.981,34.719L176.559,34.719L176.691,37.238C177.336,36.369 178.107,35.686 179.006,35.188C179.914,34.68 180.944,34.426 182.096,34.426ZM190.124,28.069L198.224,28.069L198.224,48.225L203.395,48.225L203.395,50.569L190.124,50.569L190.124,48.225L195.514,48.225L195.514,30.427L190.124,30.427L190.124,28.069ZM214.689,50.862C213.576,50.862 212.55,50.672 211.613,50.291C210.685,49.91 209.889,49.377 209.225,48.694C208.561,48.011 208.044,47.2 207.673,46.262C207.302,45.325 207.116,44.304 207.116,43.201L207.116,42.586C207.116,41.307 207.321,40.164 207.731,39.158C208.141,38.142 208.683,37.287 209.357,36.594C210.041,35.891 210.813,35.354 211.672,34.983C212.541,34.612 213.429,34.426 214.338,34.426C215.481,34.426 216.477,34.626 217.326,35.027C218.185,35.418 218.898,35.965 219.465,36.668C220.031,37.361 220.451,38.182 220.724,39.129C221.007,40.076 221.149,41.101 221.149,42.205L221.149,43.421L209.826,43.421C209.855,44.144 209.992,44.822 210.236,45.457C210.49,46.092 210.832,46.648 211.261,47.127C211.701,47.596 212.224,47.967 212.829,48.24C213.434,48.513 214.103,48.65 214.836,48.65C215.803,48.65 216.662,48.455 217.414,48.064C218.166,47.673 218.791,47.156 219.289,46.511L220.944,47.8C220.681,48.201 220.349,48.587 219.948,48.958C219.557,49.319 219.103,49.641 218.586,49.924C218.068,50.207 217.482,50.432 216.828,50.598C216.173,50.774 215.46,50.862 214.689,50.862ZM214.338,36.653C213.791,36.653 213.273,36.756 212.785,36.961C212.297,37.156 211.858,37.449 211.467,37.84C211.076,38.221 210.744,38.694 210.47,39.26C210.207,39.817 210.021,40.461 209.914,41.194L218.439,41.194L218.439,40.989C218.41,40.462 218.307,39.939 218.132,39.421C217.966,38.904 217.717,38.44 217.385,38.03C217.052,37.62 216.632,37.288 216.125,37.034C215.627,36.78 215.031,36.653 214.338,36.653ZM226.1,34.719L234.201,34.719L234.201,48.225L239.372,48.225L239.372,50.569L226.1,50.569L226.1,48.225L231.491,48.225L231.491,37.078L226.1,37.078L226.1,34.719ZM231.139,30.559C231.139,30.11 231.271,29.734 231.535,29.431C231.808,29.119 232.218,28.963 232.765,28.963C233.302,28.963 233.708,29.119 233.981,29.431C234.254,29.734 234.391,30.11 234.391,30.559C234.391,30.998 234.254,31.365 233.981,31.658C233.708,31.951 233.302,32.097 232.765,32.097C232.218,32.097 231.808,31.951 231.535,31.658C231.271,31.365 231.139,30.998 231.139,30.559ZM246.095,34.719L246.286,37.063C246.862,36.243 247.57,35.603 248.41,35.144C249.25,34.675 250.187,34.436 251.222,34.426C252.053,34.426 252.805,34.543 253.478,34.778C254.162,35.013 254.743,35.379 255.221,35.877C255.7,36.375 256.066,37.01 256.32,37.781C256.584,38.542 256.716,39.451 256.716,40.506L256.716,50.569L254.006,50.569L254.006,40.564C254.006,39.861 253.928,39.265 253.771,38.777C253.615,38.289 253.381,37.893 253.068,37.59C252.765,37.287 252.389,37.068 251.94,36.931C251.501,36.794 250.993,36.726 250.417,36.726C249.508,36.726 248.707,36.956 248.014,37.415C247.331,37.864 246.784,38.46 246.374,39.202L246.374,50.569L243.664,50.569L243.664,34.72L246.095,34.719ZM276.081,39.011C276.052,39.792 275.959,40.593 275.802,41.414C275.646,42.225 275.407,42.962 275.085,43.626C274.772,44.29 274.367,44.832 273.869,45.252C273.371,45.671 272.761,45.881 272.038,45.881C271.442,45.881 270.944,45.725 270.544,45.413C270.153,45.1 269.875,44.666 269.709,44.109C269.367,44.656 268.942,45.09 268.434,45.413C267.936,45.725 267.384,45.881 266.779,45.881C266.3,45.881 265.885,45.754 265.534,45.501C265.183,45.247 264.895,44.89 264.67,44.431C264.455,43.972 264.303,43.426 264.216,42.791C264.137,42.156 264.127,41.458 264.186,40.696C264.274,39.612 264.455,38.635 264.728,37.766C265.001,36.887 265.353,36.145 265.783,35.54C266.222,34.925 266.73,34.456 267.306,34.133C267.883,33.801 268.518,33.635 269.211,33.635C269.865,33.635 270.407,33.767 270.837,34.031C271.266,34.285 271.608,34.588 271.862,34.939L271.218,42.322C271.189,42.723 271.198,43.05 271.247,43.303C271.296,43.548 271.364,43.743 271.452,43.889C271.549,44.026 271.666,44.119 271.803,44.168C271.94,44.217 272.087,44.241 272.243,44.241C272.604,44.241 272.922,44.104 273.195,43.831C273.478,43.548 273.713,43.172 273.898,42.703C274.084,42.224 274.226,41.668 274.323,41.033C274.421,40.398 274.475,39.724 274.484,39.011C274.523,37.771 274.421,36.658 274.177,35.671C273.932,34.685 273.556,33.85 273.049,33.167C272.551,32.483 271.936,31.96 271.203,31.599C270.47,31.238 269.635,31.057 268.698,31.057C267.712,31.057 266.809,31.291 265.988,31.76C265.177,32.219 264.474,32.864 263.879,33.694C263.283,34.524 262.814,35.515 262.472,36.668C262.131,37.82 261.94,39.08 261.901,40.447C261.852,41.775 261.945,42.957 262.179,43.992C262.414,45.027 262.79,45.906 263.307,46.628C263.825,47.341 264.484,47.888 265.285,48.269C266.096,48.64 267.048,48.826 268.141,48.826C268.434,48.826 268.732,48.806 269.035,48.767C269.338,48.718 269.635,48.655 269.928,48.577C270.221,48.489 270.5,48.386 270.763,48.269C271.027,48.152 271.266,48.02 271.481,47.873L271.95,49.587C271.706,49.773 271.428,49.934 271.115,50.071C270.802,50.208 270.475,50.325 270.134,50.422C269.792,50.51 269.445,50.574 269.094,50.613C268.742,50.662 268.41,50.686 268.097,50.686C266.662,50.686 265.426,50.437 264.391,49.939C263.366,49.431 262.526,48.723 261.872,47.815C261.227,46.906 260.759,45.827 260.466,44.577C260.183,43.318 260.065,41.941 260.114,40.447C260.153,39.441 260.275,38.464 260.48,37.517C260.685,36.56 260.964,35.666 261.315,34.836C261.676,34.006 262.106,33.249 262.604,32.566C263.112,31.873 263.678,31.277 264.303,30.779C264.928,30.281 265.612,29.895 266.354,29.621C267.106,29.348 267.902,29.211 268.742,29.211C269.933,29.211 270.993,29.445 271.921,29.914C272.848,30.373 273.625,31.033 274.25,31.892C274.885,32.751 275.358,33.786 275.671,34.997C275.983,36.198 276.12,37.536 276.081,39.011ZM265.988,40.696C265.939,41.692 266.022,42.468 266.237,43.025C266.452,43.582 266.793,43.86 267.262,43.86C267.741,43.86 268.175,43.728 268.566,43.464C268.957,43.201 269.299,42.761 269.592,42.146L270.163,35.628C269.89,35.501 269.606,35.437 269.313,35.437C268.796,35.437 268.342,35.564 267.951,35.818C267.57,36.062 267.248,36.414 266.984,36.873C266.721,37.322 266.506,37.873 266.34,38.528C266.183,39.173 266.066,39.895 265.988,40.696ZM279.142,42.512C279.142,41.331 279.284,40.247 279.567,39.26C279.86,38.264 280.28,37.41 280.827,36.697C281.374,35.984 282.038,35.428 282.819,35.027C283.6,34.626 284.484,34.426 285.47,34.426C286.447,34.426 287.301,34.602 288.034,34.954C288.776,35.295 289.406,35.793 289.924,36.448L290.055,34.719L292.516,34.719L292.516,50.232C292.516,51.277 292.35,52.204 292.018,53.015C291.696,53.826 291.237,54.514 290.641,55.081C290.055,55.647 289.352,56.077 288.532,56.37C287.712,56.663 286.804,56.809 285.807,56.809C285.397,56.809 284.928,56.76 284.401,56.663C283.874,56.575 283.337,56.424 282.79,56.209C282.253,56.004 281.73,55.725 281.222,55.374C280.724,55.022 280.294,54.587 279.933,54.07L281.34,52.444C281.672,52.844 282.014,53.181 282.365,53.455C282.716,53.738 283.073,53.962 283.434,54.128C283.795,54.295 284.157,54.412 284.518,54.48C284.879,54.558 285.241,54.597 285.602,54.597C286.247,54.597 286.828,54.504 287.345,54.319C287.863,54.133 288.303,53.859 288.664,53.498C289.035,53.147 289.318,52.707 289.513,52.18C289.708,51.653 289.806,51.047 289.806,50.364L289.806,49.001C289.279,49.607 288.654,50.071 287.931,50.393C287.218,50.706 286.388,50.862 285.441,50.862C284.474,50.862 283.6,50.657 282.819,50.247C282.038,49.836 281.374,49.27 280.827,48.547C280.29,47.824 279.875,46.975 279.582,45.998C279.289,45.012 279.142,43.953 279.142,42.82L279.142,42.512ZM281.852,42.82C281.852,43.591 281.93,44.324 282.087,45.017C282.253,45.71 282.507,46.321 282.848,46.848C283.2,47.375 283.644,47.795 284.181,48.108C284.718,48.411 285.363,48.562 286.115,48.562C286.584,48.562 287.004,48.508 287.375,48.401C287.756,48.284 288.093,48.123 288.386,47.918C288.689,47.713 288.957,47.468 289.191,47.185C289.426,46.902 289.631,46.59 289.806,46.248L289.806,38.982C289.631,38.65 289.426,38.347 289.191,38.074C288.957,37.801 288.689,37.566 288.386,37.371C288.083,37.166 287.746,37.009 287.375,36.902C287.004,36.785 286.593,36.726 286.144,36.726C285.383,36.726 284.728,36.882 284.181,37.195C283.644,37.508 283.2,37.933 282.848,38.47C282.507,38.997 282.253,39.612 282.087,40.315C281.93,41.008 281.852,41.741 281.852,42.512L281.852,42.82ZM298.874,34.719L298.947,36.214C299.269,35.657 299.689,35.223 300.207,34.91C300.734,34.597 301.369,34.436 302.111,34.426C303.566,34.426 304.538,34.993 305.026,36.126C305.339,35.618 305.749,35.213 306.257,34.91C306.774,34.597 307.399,34.436 308.132,34.426C309.294,34.426 310.187,34.783 310.812,35.496C311.437,36.209 311.75,37.288 311.75,38.733L311.75,50.569L309.172,50.569L309.172,38.704C309.172,37.376 308.562,36.717 307.341,36.726C307.018,36.726 306.74,36.77 306.506,36.858C306.271,36.946 306.076,37.068 305.92,37.224C305.763,37.371 305.641,37.547 305.553,37.752C305.466,37.947 305.407,38.152 305.378,38.367L305.378,50.569L302.8,50.569L302.8,38.689C302.8,38.054 302.658,37.566 302.375,37.224C302.092,36.883 301.642,36.717 301.027,36.726C300.461,36.726 300.022,36.838 299.709,37.063C299.396,37.288 299.167,37.586 299.02,37.957L299.02,50.569L296.442,50.569L296.442,34.719L298.874,34.719ZM326.032,50.569C325.925,50.364 325.837,50.11 325.768,49.807C325.709,49.495 325.665,49.173 325.636,48.84C325.363,49.114 325.055,49.373 324.714,49.617C324.382,49.861 324.011,50.076 323.6,50.261C323.2,50.447 322.77,50.594 322.311,50.701C321.852,50.808 321.364,50.862 320.846,50.862C320.007,50.862 319.245,50.74 318.561,50.496C317.888,50.251 317.312,49.924 316.833,49.514C316.364,49.094 315.998,48.601 315.734,48.035C315.48,47.458 315.353,46.838 315.353,46.174C315.353,45.305 315.524,44.544 315.866,43.889C316.217,43.235 316.71,42.693 317.345,42.263C317.98,41.824 318.742,41.497 319.631,41.282C320.529,41.067 321.53,40.96 322.634,40.96L325.593,40.96L325.593,39.714C325.593,39.236 325.505,38.806 325.329,38.425C325.153,38.044 324.904,37.722 324.582,37.459C324.259,37.185 323.864,36.975 323.395,36.829C322.936,36.682 322.419,36.609 321.843,36.609C321.306,36.609 320.822,36.677 320.392,36.814C319.972,36.951 319.616,37.131 319.323,37.356C319.03,37.581 318.801,37.849 318.635,38.162C318.478,38.465 318.4,38.782 318.4,39.114L315.676,39.114C315.685,38.538 315.832,37.972 316.115,37.415C316.408,36.858 316.823,36.36 317.36,35.921C317.907,35.472 318.566,35.11 319.338,34.837C320.119,34.564 321.003,34.427 321.989,34.427C322.888,34.427 323.723,34.539 324.494,34.763C325.265,34.978 325.929,35.311 326.486,35.76C327.053,36.199 327.497,36.751 327.819,37.415C328.141,38.079 328.302,38.855 328.302,39.744L328.302,47.112C328.302,47.639 328.351,48.201 328.449,48.797C328.546,49.383 328.683,49.896 328.859,50.335L328.859,50.569L326.032,50.569ZM321.242,48.504C321.769,48.504 322.262,48.435 322.721,48.298C323.18,48.161 323.596,47.981 323.967,47.756C324.348,47.531 324.675,47.278 324.948,46.995C325.221,46.702 325.436,46.399 325.593,46.086L325.593,42.878L323.073,42.878C321.491,42.878 320.261,43.113 319.382,43.582C318.503,44.051 318.063,44.788 318.063,45.793C318.063,46.184 318.127,46.545 318.254,46.877C318.391,47.21 318.591,47.498 318.854,47.742C319.118,47.976 319.45,48.161 319.85,48.298C320.251,48.435 320.715,48.504 321.242,48.504ZM334.03,34.719L342.131,34.719L342.131,48.225L347.302,48.225L347.302,50.569L334.03,50.569L334.03,48.225L339.421,48.225L339.421,37.078L334.03,37.078L334.03,34.719ZM339.069,30.559C339.069,30.11 339.201,29.734 339.465,29.431C339.738,29.119 340.148,28.963 340.695,28.963C341.232,28.963 341.638,29.119 341.911,29.431C342.184,29.734 342.321,30.11 342.321,30.559C342.321,30.998 342.184,31.365 341.911,31.658C341.638,31.951 341.232,32.097 340.695,32.097C340.148,32.097 339.738,31.951 339.465,31.658C339.201,31.365 339.069,30.998 339.069,30.559ZM352.018,28.069L360.119,28.069L360.119,48.225L365.29,48.225L365.29,50.569L352.018,50.569L352.018,48.225L357.409,48.225L357.409,30.427L352.018,30.427L352.018,28.069ZM374.299,48.811C374.299,48.518 374.343,48.245 374.43,47.991C374.528,47.737 374.665,47.517 374.841,47.332C375.016,47.137 375.236,46.985 375.5,46.878C375.763,46.771 376.071,46.717 376.423,46.717C376.774,46.717 377.082,46.771 377.345,46.878C377.619,46.985 377.844,47.137 378.019,47.332C378.205,47.517 378.342,47.737 378.429,47.991C378.527,48.245 378.576,48.518 378.576,48.811C378.576,49.094 378.527,49.363 378.429,49.617C378.342,49.861 378.205,50.076 378.019,50.261C377.844,50.447 377.619,50.589 377.345,50.686C377.082,50.793 376.774,50.847 376.423,50.847C376.071,50.847 375.763,50.793 375.5,50.686C375.236,50.589 375.016,50.447 374.841,50.261C374.665,50.076 374.528,49.861 374.43,49.617C374.343,49.363 374.299,49.094 374.299,48.811ZM394.323,48.665C394.811,48.665 395.285,48.587 395.744,48.43C396.213,48.274 396.628,48.059 396.989,47.786C397.35,47.503 397.638,47.175 397.853,46.804C398.078,46.423 398.195,46.013 398.205,45.574L400.768,45.574C400.759,46.277 400.573,46.95 400.212,47.595C399.86,48.23 399.386,48.791 398.791,49.28C398.195,49.759 397.511,50.144 396.74,50.437C395.969,50.72 395.163,50.862 394.323,50.862C393.122,50.862 392.072,50.647 391.174,50.217C390.275,49.788 389.523,49.212 388.918,48.489C388.322,47.756 387.873,46.916 387.57,45.969C387.267,45.012 387.116,44.007 387.116,42.952L387.116,42.337C387.116,41.292 387.267,40.291 387.57,39.334C387.873,38.377 388.322,37.537 388.918,36.814C389.523,36.081 390.275,35.5 391.174,35.071C392.072,34.641 393.122,34.426 394.323,34.426C395.26,34.426 396.12,34.577 396.901,34.88C397.692,35.173 398.371,35.579 398.937,36.096C399.514,36.604 399.963,37.21 400.285,37.913C400.607,38.616 400.768,39.368 400.768,40.169L398.205,40.169C398.195,39.69 398.088,39.241 397.883,38.821C397.688,38.391 397.419,38.015 397.077,37.693C396.735,37.371 396.325,37.117 395.846,36.931C395.377,36.746 394.87,36.653 394.323,36.653C393.483,36.653 392.775,36.824 392.199,37.166C391.632,37.498 391.173,37.937 390.822,38.484C390.471,39.021 390.217,39.627 390.06,40.3C389.914,40.974 389.841,41.653 389.841,42.336L389.841,42.952C389.841,43.645 389.914,44.334 390.06,45.017C390.217,45.691 390.466,46.301 390.807,46.848C391.159,47.385 391.618,47.825 392.184,48.167C392.761,48.499 393.474,48.665 394.323,48.665ZM404.797,42.498C404.797,41.355 404.963,40.296 405.295,39.319C405.627,38.333 406.101,37.479 406.716,36.756C407.341,36.033 408.097,35.467 408.986,35.056C409.875,34.636 410.876,34.426 411.989,34.426C413.112,34.426 414.118,34.636 415.007,35.056C415.905,35.467 416.662,36.033 417.277,36.756C417.902,37.479 418.381,38.333 418.713,39.319C419.045,40.296 419.211,41.355 419.211,42.498L419.211,42.82C419.211,43.963 419.045,45.022 418.713,45.999C418.381,46.976 417.902,47.825 417.277,48.548C416.662,49.271 415.91,49.837 415.021,50.247C414.132,50.657 413.131,50.862 412.018,50.862C410.895,50.862 409.885,50.657 408.986,50.247C408.097,49.837 407.341,49.271 406.716,48.548C406.101,47.825 405.627,46.976 405.295,45.999C404.963,45.022 404.797,43.963 404.797,42.82L404.797,42.498ZM407.507,42.82C407.507,43.601 407.6,44.348 407.785,45.061C407.97,45.764 408.249,46.385 408.62,46.922C409.001,47.459 409.474,47.883 410.041,48.196C410.607,48.509 411.266,48.665 412.018,48.665C412.761,48.665 413.41,48.509 413.967,48.196C414.533,47.883 415.002,47.459 415.373,46.922C415.754,46.385 416.037,45.764 416.222,45.061C416.408,44.348 416.501,43.601 416.501,42.82L416.501,42.498C416.501,41.726 416.403,40.989 416.208,40.286C416.022,39.573 415.739,38.948 415.358,38.411C414.987,37.874 414.519,37.449 413.952,37.136C413.395,36.814 412.741,36.653 411.989,36.653C411.237,36.653 410.583,36.814 410.026,37.136C409.469,37.449 409.001,37.874 408.62,38.411C408.249,38.948 407.97,39.573 407.785,40.286C407.6,40.989 407.507,41.726 407.507,42.498L407.507,42.82ZM424.792,34.719L424.865,36.214C425.187,35.657 425.607,35.223 426.125,34.91C426.652,34.597 427.287,34.436 428.029,34.426C429.484,34.426 430.456,34.993 430.944,36.126C431.257,35.618 431.667,35.213 432.175,34.91C432.692,34.597 433.317,34.436 434.05,34.426C435.212,34.426 436.105,34.783 436.73,35.496C437.355,36.209 437.668,37.288 437.668,38.733L437.668,50.569L435.09,50.569L435.09,38.704C435.09,37.376 434.48,36.717 433.259,36.726C432.936,36.726 432.658,36.77 432.424,36.858C432.189,36.946 431.994,37.068 431.838,37.224C431.681,37.371 431.559,37.547 431.471,37.752C431.384,37.947 431.325,38.152 431.296,38.367L431.296,50.569L428.718,50.569L428.718,38.689C428.718,38.054 428.576,37.566 428.293,37.224C428.01,36.883 427.56,36.717 426.945,36.726C426.378,36.726 425.939,36.838 425.627,37.063C425.314,37.288 425.085,37.586 424.938,37.957L424.938,50.569L422.36,50.569L422.36,34.719L424.792,34.719Z" style="fill-opacity:0.87;"/>
    </g>
</svg>
